<svg width="3125" height="551" viewBox="0 0 3125 551" fill="none" xmlns="http://www.w3.org/2000/svg">
<rect width="3125" height="550.298" fill="url(#paint0_linear_3372_9363)"/>
<rect x="356.898" y="108.331" width="50.5104" height="50.5104" rx="25.2552" fill="white"/>
<rect x="415.383" y="118.965" width="50.5104" height="50.5104" rx="25.2552" fill="white"/>
<rect x="399.434" y="93.709" width="50.5104" height="50.5104" rx="25.2552" fill="white"/>
<rect x="374.18" y="88.3926" width="50.5104" height="50.5104" rx="25.2552" fill="white"/>
<rect x="382.816" y="118.965" width="50.5104" height="50.5104" rx="25.2552" fill="white"/>
<rect x="424.684" y="158.843" width="50.5104" height="50.5104" rx="25.2552" fill="white"/>
<rect x="483.168" y="169.477" width="50.5104" height="50.5104" rx="25.2552" fill="white"/>
<rect x="467.219" y="144.221" width="50.5104" height="50.5104" rx="25.2552" fill="white"/>
<rect x="441.965" y="138.904" width="50.5104" height="50.5104" rx="25.2552" fill="white"/>
<rect x="450.602" y="169.477" width="50.5104" height="50.5104" rx="25.2552" fill="white"/>
<rect x="806.176" y="138.239" width="50.5104" height="50.5104" rx="25.2552" fill="white"/>
<rect x="864.66" y="148.873" width="50.5104" height="50.5104" rx="25.2552" fill="white"/>
<rect x="848.711" y="123.617" width="50.5104" height="50.5104" rx="25.2552" fill="white"/>
<rect x="823.457" y="118.301" width="50.5104" height="50.5104" rx="25.2552" fill="white"/>
<rect x="832.094" y="148.873" width="50.5104" height="50.5104" rx="25.2552" fill="white"/>
<rect x="1736.63" y="50.5107" width="50.5104" height="50.5104" rx="25.2552" fill="white"/>
<rect x="1795.11" y="61.1445" width="50.5104" height="50.5104" rx="25.2552" fill="white"/>
<rect x="1779.16" y="35.8887" width="50.5104" height="50.5104" rx="25.2552" fill="white"/>
<rect x="1753.91" y="30.5723" width="50.5104" height="50.5104" rx="25.2552" fill="white"/>
<rect x="1762.55" y="61.1445" width="50.5104" height="50.5104" rx="25.2552" fill="white"/>
<rect x="2462.38" y="148.209" width="50.5104" height="50.5104" rx="25.2552" fill="white"/>
<rect x="2520.87" y="158.843" width="50.5104" height="50.5104" rx="25.2552" fill="white"/>
<rect x="2504.92" y="133.587" width="50.5104" height="50.5104" rx="25.2552" fill="white"/>
<rect x="2479.66" y="128.271" width="50.5104" height="50.5104" rx="25.2552" fill="white"/>
<rect x="2488.3" y="158.843" width="50.5104" height="50.5104" rx="25.2552" fill="white"/>
<rect x="1306.62" y="110.99" width="50.5104" height="50.5104" rx="25.2552" fill="white"/>
<rect x="1365.11" y="121.624" width="50.5104" height="50.5104" rx="25.2552" fill="white"/>
<rect x="1349.16" y="96.3682" width="50.5104" height="50.5104" rx="25.2552" fill="white"/>
<rect x="1323.91" y="91.0518" width="50.5104" height="50.5104" rx="25.2552" fill="white"/>
<rect x="1332.54" y="121.624" width="50.5104" height="50.5104" rx="25.2552" fill="white"/>
<rect x="1878.86" y="77.7598" width="50.5104" height="50.5104" rx="25.2552" fill="white"/>
<rect x="1937.34" y="88.3936" width="50.5104" height="50.5104" rx="25.2552" fill="white"/>
<rect x="1921.39" y="63.1377" width="50.5104" height="50.5104" rx="25.2552" fill="white"/>
<rect x="1896.14" y="57.8213" width="50.5104" height="50.5104" rx="25.2552" fill="white"/>
<rect x="1904.77" y="88.3936" width="50.5104" height="50.5104" rx="25.2552" fill="white"/>
<rect x="1238.83" y="133.587" width="50.5104" height="50.5104" rx="25.2552" fill="white"/>
<rect x="1297.32" y="144.221" width="50.5104" height="50.5104" rx="25.2552" fill="white"/>
<rect x="1281.37" y="118.965" width="50.5104" height="50.5104" rx="25.2552" fill="white"/>
<rect x="1256.11" y="113.648" width="50.5104" height="50.5104" rx="25.2552" fill="white"/>
<rect x="1264.75" y="144.221" width="50.5104" height="50.5104" rx="25.2552" fill="white"/>
<rect x="1795.11" y="98.3623" width="50.5104" height="50.5104" rx="25.2552" fill="white"/>
<rect x="1853.6" y="108.996" width="50.5104" height="50.5104" rx="25.2552" fill="white"/>
<rect x="1837.65" y="83.7402" width="50.5104" height="50.5104" rx="25.2552" fill="white"/>
<rect x="1812.39" y="78.4238" width="50.5104" height="50.5104" rx="25.2552" fill="white"/>
<rect x="1821.03" y="108.996" width="50.5104" height="50.5104" rx="25.2552" fill="white"/>
<rect x="2706.96" y="120.96" width="50.5104" height="50.5104" rx="25.2552" fill="white"/>
<rect x="2765.44" y="131.594" width="50.5104" height="50.5104" rx="25.2552" fill="white"/>
<rect x="2749.49" y="106.338" width="50.5104" height="50.5104" rx="25.2552" fill="white"/>
<rect x="2724.24" y="101.021" width="50.5104" height="50.5104" rx="25.2552" fill="white"/>
<rect x="2732.88" y="131.594" width="50.5104" height="50.5104" rx="25.2552" fill="white"/>
<rect x="218.656" y="148.873" width="50.5104" height="50.5104" rx="25.2552" fill="white"/>
<rect x="277.141" y="159.507" width="50.5104" height="50.5104" rx="25.2552" fill="white"/>
<rect x="261.191" y="134.251" width="50.5104" height="50.5104" rx="25.2552" fill="white"/>
<rect x="235.938" y="128.935" width="50.5104" height="50.5104" rx="25.2552" fill="white"/>
<rect x="244.574" y="159.507" width="50.5104" height="50.5104" rx="25.2552" fill="white"/>
<defs>
<linearGradient id="paint0_linear_3372_9363" x1="1562.5" y1="0" x2="1562.5" y2="550.298" gradientUnits="userSpaceOnUse">
<stop stop-color="#B2C6FA"/>
<stop offset="1" stop-color="#5896F4"/>
</linearGradient>
</defs>
</svg>
